<?xml version="1.0" encoding="utf-8"?>
<!-- Generator: Adobe Illustrator 17.1.0, SVG Export Plug-In . SVG Version: 6.00 Build 0)  -->
<!DOCTYPE svg PUBLIC "-//W3C//DTD SVG 1.1//EN" "http://www.w3.org/Graphics/SVG/1.1/DTD/svg11.dtd">
<svg version="1.1" id="Capa_1" xmlns="http://www.w3.org/2000/svg" xmlns:xlink="http://www.w3.org/1999/xlink" x="0px" y="0px"
	 viewBox="0 0 345.7 44.4" enable-background="new 0 0 345.7 44.4" xml:space="preserve">
<g>
	<path fill="#222120" d="M211.7,4.5v12.7h-0.1l-7.9-11.9c-0.3-0.6-0.9-0.8-1.7-0.8h-0.7c-5.2,0-7.9,5.9-7.9,17.8
		c0,11.7,2.7,17.6,8,17.6h0.6c0.8,0,1.4-0.2,1.7-0.7l7.9-12.2h0.1v13c-3.4,0.6-7,0.9-11,0.9c-6,0-10.5-1.6-13.4-4.9
		c-3-3.3-4.4-7.8-4.4-13.7c0-5.8,1.5-10.4,4.6-13.7c3.1-3.4,7.4-5,13.1-5C204.3,3.5,208.1,3.8,211.7,4.5"/>
	<path fill="#222120" d="M243.6,4v12.5h-0.1l-6.7-10.6c-0.3-0.6-0.8-0.8-1.4-0.8h-5.3c-0.4,0-0.6,0.1-0.7,0.2
		c-0.1,0.1-0.2,0.4-0.2,0.9v32.2c0,0.4,0.1,0.7,0.2,0.9c0.1,0.1,0.3,0.2,0.7,0.2h5.9c0.8,0,1.3-0.2,1.6-0.7l6.4-11h0.1v12.7h-28.2
		v-0.1l3.5-3.3c0.3-0.3,0.5-0.7,0.5-1.2V8.6c0-0.5-0.2-0.9-0.5-1.2l-3.5-3.3V4H243.6z"/>
	<path fill="#222120" d="M264.3,23.4h-2.7v12.4c0,0.5,0.2,0.9,0.5,1.2l3.5,3.2v0.1h-17.3v-0.1l3.5-3.3c0.3-0.3,0.5-0.7,0.5-1.2V8.6
		c0-0.5-0.2-0.9-0.5-1.2l-3.5-3.3V4h19.9c3.5,0,6.3,0.8,8.6,2.3c2.3,1.5,3.4,3.9,3.4,7c0,2.8-1,5-3,6.6c-2,1.6-4.8,2.6-8.3,2.9v0.1
		l6.7,2l4.7,11.2c0.2,0.6,0.7,1.3,1.4,2l2.2,2.3v0.1h-12.1L265.4,24C265.2,23.6,264.8,23.4,264.3,23.4 M261.6,6v16.3h2.7
		c4,0,6-2.8,6-8.5c0-5.9-1.9-8.8-5.8-8.8h-2c-0.4,0-0.7,0.1-0.8,0.2C261.6,5.4,261.6,5.6,261.6,6"/>
	<path fill="#222120" d="M313,4v12.5h-0.1l-6.7-10.6c-0.3-0.6-0.8-0.8-1.4-0.8h-5.3c-0.4,0-0.6,0.1-0.7,0.2
		c-0.1,0.1-0.2,0.4-0.2,0.9v32.2c0,0.4,0.1,0.7,0.2,0.9c0.1,0.1,0.3,0.2,0.7,0.2h5.9c0.8,0,1.3-0.2,1.6-0.7l6.4-11h0.1v12.7h-28.2
		v-0.1l3.5-3.3c0.3-0.3,0.5-0.7,0.5-1.2V8.6c0-0.5-0.2-0.9-0.5-1.2l-3.5-3.3V4H313z"/>
	<path fill="#222120" d="M345,29.1c0,3.5-1.3,6.4-4,8.5c-2.7,2.2-6.1,3.3-10.5,3.3c-3.8,0-7.3-0.5-10.6-1.4V27.1h0.1l6.8,11.8
		c0.3,0.6,0.7,0.9,1.1,0.9c0.5,0.1,1.2,0.1,2.2,0.1c2.1,0,3.8-0.5,5.1-1.5c1.3-1,1.9-2.5,1.9-4.4c0-1.6-0.5-2.9-1.6-3.9
		c-1.1-1-2.9-2.1-5.5-3.3l-1.6-0.8c-1.4-0.7-2.5-1.3-3.5-1.9c-1-0.6-2-1.4-3-2.3c-1-0.9-1.8-2-2.3-3.3c-0.5-1.3-0.8-2.7-0.8-4.2
		c0-3.3,1.2-5.9,3.7-7.9c2.4-2,5.7-2.9,9.8-2.9c3.3,0,6.6,0.4,9.9,1.2v11.8h-0.1l-7-11.2c-0.3-0.4-0.6-0.7-1-0.7
		c-0.4-0.1-0.9-0.1-1.5-0.1c-1.9,0-3.3,0.5-4.5,1.5c-1.1,1-1.7,2.4-1.7,4.2c0,1.5,0.5,2.7,1.5,3.7c1,0.9,2.7,2,5,3.1l1.9,0.9
		c1.3,0.7,2.4,1.2,3.2,1.6c0.8,0.4,1.7,1,2.7,1.7c1,0.7,1.7,1.4,2.3,2.1c0.5,0.7,1,1.5,1.4,2.5C344.8,26.8,345,27.9,345,29.1"/>
	<path fill="#222120" d="M240.6,22.3c0,2.1-1.7,3.8-3.8,3.8c-2.1,0-3.8-1.7-3.8-3.8c0-2.1,1.7-3.8,3.8-3.8
		C238.9,18.5,240.6,20.2,240.6,22.3"/>
	<path fill="#222120" d="M309.8,22.3c0,2.1-1.7,3.8-3.8,3.8c-2.1,0-3.8-1.7-3.8-3.8c0-2.1,1.7-3.8,3.8-3.8
		C308.1,18.5,309.8,20.2,309.8,22.3"/>
	<path fill="#222120" d="M12.1,40.9c-3.1,0-7.4-0.5-10.6-1.4V27.1h0.1l6.8,11.8c0.4,0.6,0.5,0.8,1.1,0.9c0.8,0.1,1.5,0.1,2.2,0.1
		c4.2,0,7-2.1,7-5.9c0-3.5-2.4-5-7.1-7.2l-1.6-0.8c-4.6-2.2-9.6-5.2-9.6-11.6c0-6.6,5.3-10.8,13.4-10.8c2.7,0,6.3,0.3,9.9,1.2v11.8
		h-0.1l-7-11.2c-0.4-0.5-0.5-0.6-1-0.7c-0.6-0.1-1-0.1-1.5-0.1C10.6,4.5,8,6.6,8,10.2c0,3.3,2.5,4.8,6.6,6.8l1.9,0.9
		C22,20.5,26.6,23,26.6,29.1C26.6,36.1,20.9,40.9,12.1,40.9"/>
	<path fill="#222120" d="M65.2,22.2c0,12.3-6.6,18.7-17.5,18.7s-17.5-6.4-17.5-18.7c0-12.3,6.6-18.7,17.5-18.7S65.2,9.9,65.2,22.2
		 M54.5,22.2c0-12.8-2.5-17.7-6.9-17.7c-4.4,0-6.9,4.9-6.9,17.7c0,12.8,2.5,17.7,6.9,17.7C52.1,39.9,54.5,35,54.5,22.2"/>
	<path fill="#222120" d="M107.9,37l3.4,3.3v0.1H94.1v-0.1l3.5-3.3c0.4-0.4,0.5-0.6,0.5-1.2V15c0-0.9,0.1-2.1,0.2-3.1L86.5,40.8h-0.1
		L74.3,14.2c-0.3-0.7-0.7-1.5-1-2.3v19.7c0,0.8,0.1,0.9,0.7,1.7l5.2,6.9v0.1H66.4v-0.1l5.2-6.9c0.6-0.8,0.7-0.9,0.7-1.7V11.2
		c0-0.9-0.1-1-0.5-1.5l-4.2-5.6V4h12.3l10.8,23.6L100.2,4h11.1v0.1l-3.4,3.8c-0.5,0.5-0.5,0.6-0.5,1.3v26.6
		C107.4,36.4,107.4,36.6,107.9,37"/>
	<path fill="#222120" d="M148.7,22.2c0,12.3-6.6,18.7-17.5,18.7c-10.9,0-17.5-6.4-17.5-18.7c0-12.3,6.6-18.7,17.5-18.7
		C142.1,3.5,148.7,9.9,148.7,22.2 M138.1,22.2c0-12.8-2.5-17.7-6.9-17.7c-4.4,0-6.9,4.9-6.9,17.7c0,12.8,2.5,17.7,6.9,17.7
		C135.6,39.9,138.1,35,138.1,22.2"/>
	<path fill="#222120" d="M164.8,40.9c-3.1,0-7.4-0.5-10.6-1.4V27.1h0.1l6.8,11.8c0.4,0.6,0.5,0.8,1.1,0.9c0.8,0.1,1.5,0.1,2.2,0.1
		c4.2,0,7-2.1,7-5.9c0-3.5-2.4-5-7.1-7.2l-1.6-0.8c-4.6-2.2-9.6-5.2-9.6-11.6c0-6.6,5.3-10.8,13.4-10.8c2.7,0,6.3,0.3,9.9,1.2v11.8
		h-0.1l-7-11.2c-0.4-0.5-0.5-0.6-1-0.7c-0.6-0.1-1-0.1-1.5-0.1c-3.6,0-6.1,2.1-6.1,5.7c0,3.3,2.5,4.8,6.6,6.8l1.9,0.9
		c5.5,2.6,10.1,5.1,10.1,11.2C179.2,36.1,173.5,40.9,164.8,40.9"/>
</g>
</svg>
